<?xml version="1.0" standalone="no"?>
<!DOCTYPE svg PUBLIC "-//W3C//DTD SVG 20010904//EN"
 "http://www.w3.org/TR/2001/REC-SVG-20010904/DTD/svg10.dtd">
<svg version="1.0" xmlns="http://www.w3.org/2000/svg"
 width="256.000000pt" height="256.000000pt" viewBox="0 0 256.000000 256.000000"
 preserveAspectRatio="xMidYMid meet">
<metadata>
Created by potrace 1.11, written by Peter Selinger 2001-2013
</metadata>
<g transform="translate(0.000000,256.000000) scale(0.100000,-0.100000)"
fill="#000000" stroke="none">
<path d="M920 2120 c0 -5 5 -10 10 -10 10 0 35 -48 32 -62 -3 -14 38 -95 58
-113 11 -10 18 -25 16 -32 -3 -7 -1 -15 4 -18 6 -4 10 -13 10 -22 0 -12 -3
-13 -14 -4 -9 8 -16 8 -20 2 -8 -13 33 -41 50 -34 8 3 14 0 14 -6 0 -6 -7 -11
-16 -11 -33 0 0 -70 39 -83 7 -2 18 -87 12 -87 -11 0 -81 44 -90 57 -7 10 -18
19 -24 19 -6 1 -15 2 -20 3 -5 0 -17 8 -26 17 -13 13 -19 14 -28 5 -9 -10 -8
-15 6 -26 17 -12 24 -30 26 -63 1 -9 11 -11 36 -6 30 5 35 3 35 -12 0 -29 -15
-45 -33 -38 -12 4 -17 1 -17 -10 0 -10 -6 -13 -15 -10 -21 9 -19 -10 5 -31 11
-10 17 -22 14 -27 -8 -13 -57 0 -67 18 -12 21 -34 17 -40 -7 -4 -13 -12 -19
-25 -17 -29 5 -52 -21 -52 -58 0 -24 -5 -34 -15 -34 -8 0 -15 4 -15 9 0 5 -13
9 -30 9 -16 -1 -30 -5 -30 -9 0 -13 32 -40 58 -50 19 -7 22 -13 14 -21 -9 -9
-16 -7 -30 5 -11 10 -26 15 -35 12 -17 -7 -29 -53 -16 -61 15 -9 10 -24 -7
-24 -11 0 -14 -6 -9 -20 5 -16 2 -20 -17 -20 -31 0 -94 -52 -84 -69 5 -7 17
-11 27 -8 10 3 30 -3 43 -14 13 -10 38 -19 54 -19 17 0 34 -5 37 -11 4 -5 18
-14 31 -19 13 -5 24 -13 23 -17 -5 -32 6 -60 38 -91 20 -21 49 -61 65 -91 33
-63 31 -80 -27 -176 -42 -68 -45 -91 -12 -80 12 4 36 9 54 12 31 5 31 5 45
-59 10 -43 20 -64 31 -66 13 -3 15 3 10 31 -4 28 10 80 32 115 4 5 65 -30 65
-37 0 -28 -25 -70 -50 -85 -33 -19 -36 -28 -45 -140 -6 -63 -4 -77 7 -74 9 3
14 28 16 81 3 75 4 77 42 109 21 19 44 46 51 61 16 35 49 33 67 -5 7 -15 30
-42 52 -61 22 -19 40 -42 40 -51 0 -11 6 -16 18 -14 9 2 16 10 14 16 -1 8 14
12 45 12 41 0 91 24 123 59 24 27 110 43 110 21 0 -5 7 -10 15 -10 8 0 15 2
15 5 0 9 -34 59 -45 67 -5 4 -1 8 10 8 17 0 64 58 117 144 30 48 88 184 88
207 0 30 15 39 65 39 19 0 37 4 40 10 3 5 19 7 34 4 20 -4 33 -1 42 11 8 9 25
28 38 41 23 24 24 24 3 24 -12 0 -37 -7 -55 -16 -34 -16 -35 -16 -80 17 -26
19 -46 36 -47 39 0 3 17 5 37 5 27 0 38 4 38 15 0 10 -8 14 -27 12 -32 -4 -77
25 -78 50 0 20 22 36 28 20 6 -20 40 -13 47 9 5 15 -1 29 -24 53 -20 21 -31
42 -31 61 0 17 -4 37 -9 44 -10 16 -2 39 22 63 26 26 49 67 42 78 -8 13 -40
13 -87 0 -37 -11 -57 -38 -37 -51 8 -5 5 -11 -10 -19 -20 -10 -27 -6 -74 43
-34 36 -63 57 -85 62 -34 7 -35 25 -1 25 22 0 23 4 9 30 -13 24 -3 70 15 70
12 0 28 50 19 59 -2 2 -12 -3 -22 -12 -10 -10 -23 -17 -28 -17 -6 0 -19 -9
-31 -19 -31 -29 -80 -52 -98 -45 -23 9 -14 38 13 42 26 4 30 22 4 22 -10 0
-25 -9 -35 -20 -9 -11 -24 -20 -32 -20 -11 0 -15 -11 -15 -41 0 -38 -1 -40
-27 -37 -23 2 -28 8 -28 32 0 16 -6 31 -12 33 -7 3 -13 -2 -13 -11 0 -24 -25
-19 -40 9 -7 13 -18 23 -24 22 -5 -1 -15 8 -21 21 -10 23 -25 30 -25 11 0 -19
-30 11 -30 30 -1 20 -28 57 -36 49 -12 -13 -45 29 -51 65 -5 31 -9 38 -24 34
-22 -6 -43 17 -35 38 8 21 -9 59 -46 106 -31 38 -48 49 -48 29z"/>
<path d="M1030 1980 c0 -5 5 -10 11 -10 5 0 7 5 4 10 -3 6 -8 10 -11 10 -2 0
-4 -4 -4 -10z"/>
</g>
</svg>
